<mxfile host="app.diagrams.net" agent="Mozilla/5.0 (Macintosh; Intel Mac OS X 10_15_7) AppleWebKit/537.36 (KHTML, like Gecko) Chrome/141.0.0.0 Safari/537.36" version="28.2.5">
  <diagram name="Page-1" id="hOMgRWYxctxhmv77oqi4">
    <mxGraphModel dx="1815" dy="2424" grid="1" gridSize="10" guides="1" tooltips="1" connect="1" arrows="1" fold="1" page="1" pageScale="1" pageWidth="850" pageHeight="1100" math="0" shadow="0">
      <root>
        <mxCell id="0" />
        <mxCell id="1" parent="0" />
        <mxCell id="r0DkwN11o-YaDS_weGJ4-24" value="i=0" style="text;html=1;align=center;verticalAlign=middle;resizable=0;points=[];autosize=1;strokeColor=none;fillColor=none;" vertex="1" parent="1">
          <mxGeometry x="310" y="140" width="40" height="30" as="geometry" />
        </mxCell>
        <mxCell id="r0DkwN11o-YaDS_weGJ4-25" value="j=0" style="text;html=1;align=center;verticalAlign=middle;resizable=0;points=[];autosize=1;strokeColor=none;fillColor=none;" vertex="1" parent="1">
          <mxGeometry x="80" y="250" width="40" height="30" as="geometry" />
        </mxCell>
        <mxCell id="r0DkwN11o-YaDS_weGJ4-26" value="j=1" style="text;html=1;align=center;verticalAlign=middle;resizable=0;points=[];autosize=1;strokeColor=none;fillColor=none;" vertex="1" parent="1">
          <mxGeometry x="80" y="360" width="40" height="30" as="geometry" />
        </mxCell>
        <mxCell id="r0DkwN11o-YaDS_weGJ4-27" value="j=2" style="text;html=1;align=center;verticalAlign=middle;resizable=0;points=[];autosize=1;strokeColor=none;fillColor=none;" vertex="1" parent="1">
          <mxGeometry x="80" y="465" width="40" height="30" as="geometry" />
        </mxCell>
        <mxCell id="r0DkwN11o-YaDS_weGJ4-28" value="j=3" style="text;html=1;align=center;verticalAlign=middle;resizable=0;points=[];autosize=1;strokeColor=none;fillColor=none;" vertex="1" parent="1">
          <mxGeometry x="80" y="580" width="40" height="30" as="geometry" />
        </mxCell>
        <mxCell id="r0DkwN11o-YaDS_weGJ4-29" value="size = 5&lt;div&gt;maximo i = 3&lt;/div&gt;" style="text;html=1;align=center;verticalAlign=middle;resizable=0;points=[];autosize=1;strokeColor=none;fillColor=none;" vertex="1" parent="1">
          <mxGeometry x="195" y="43" width="90" height="40" as="geometry" />
        </mxCell>
        <mxCell id="r0DkwN11o-YaDS_weGJ4-50" value="i=1" style="text;html=1;align=center;verticalAlign=middle;resizable=0;points=[];autosize=1;strokeColor=none;fillColor=none;" vertex="1" parent="1">
          <mxGeometry x="830" y="140" width="40" height="30" as="geometry" />
        </mxCell>
        <mxCell id="r0DkwN11o-YaDS_weGJ4-51" value="j=0" style="text;html=1;align=center;verticalAlign=middle;resizable=0;points=[];autosize=1;strokeColor=none;fillColor=none;" vertex="1" parent="1">
          <mxGeometry x="590" y="230" width="40" height="30" as="geometry" />
        </mxCell>
        <mxCell id="r0DkwN11o-YaDS_weGJ4-52" value="j=1" style="text;html=1;align=center;verticalAlign=middle;resizable=0;points=[];autosize=1;strokeColor=none;fillColor=none;" vertex="1" parent="1">
          <mxGeometry x="600" y="360" width="40" height="30" as="geometry" />
        </mxCell>
        <mxCell id="r0DkwN11o-YaDS_weGJ4-53" value="j=2" style="text;html=1;align=center;verticalAlign=middle;resizable=0;points=[];autosize=1;strokeColor=none;fillColor=none;" vertex="1" parent="1">
          <mxGeometry x="600" y="465" width="40" height="30" as="geometry" />
        </mxCell>
        <mxCell id="r0DkwN11o-YaDS_weGJ4-70" value="i=2" style="text;html=1;align=center;verticalAlign=middle;resizable=0;points=[];autosize=1;strokeColor=none;fillColor=none;" vertex="1" parent="1">
          <mxGeometry x="1360" y="140" width="40" height="30" as="geometry" />
        </mxCell>
        <mxCell id="r0DkwN11o-YaDS_weGJ4-71" value="j=0" style="text;html=1;align=center;verticalAlign=middle;resizable=0;points=[];autosize=1;strokeColor=none;fillColor=none;" vertex="1" parent="1">
          <mxGeometry x="1120" y="230" width="40" height="30" as="geometry" />
        </mxCell>
        <mxCell id="r0DkwN11o-YaDS_weGJ4-72" value="j=1" style="text;html=1;align=center;verticalAlign=middle;resizable=0;points=[];autosize=1;strokeColor=none;fillColor=none;" vertex="1" parent="1">
          <mxGeometry x="1130" y="360" width="40" height="30" as="geometry" />
        </mxCell>
        <mxCell id="r0DkwN11o-YaDS_weGJ4-74" value="5" style="whiteSpace=wrap;html=1;aspect=fixed;" vertex="1" parent="1">
          <mxGeometry x="425" y="-20" width="80" height="80" as="geometry" />
        </mxCell>
        <mxCell id="r0DkwN11o-YaDS_weGJ4-75" value="2" style="whiteSpace=wrap;html=1;aspect=fixed;" vertex="1" parent="1">
          <mxGeometry x="505" y="-20" width="80" height="80" as="geometry" />
        </mxCell>
        <mxCell id="r0DkwN11o-YaDS_weGJ4-76" value="6" style="whiteSpace=wrap;html=1;aspect=fixed;" vertex="1" parent="1">
          <mxGeometry x="585" y="-20" width="80" height="80" as="geometry" />
        </mxCell>
        <mxCell id="r0DkwN11o-YaDS_weGJ4-77" value="1" style="whiteSpace=wrap;html=1;aspect=fixed;" vertex="1" parent="1">
          <mxGeometry x="665" y="-20" width="80" height="80" as="geometry" />
        </mxCell>
        <mxCell id="r0DkwN11o-YaDS_weGJ4-78" value="3" style="whiteSpace=wrap;html=1;aspect=fixed;" vertex="1" parent="1">
          <mxGeometry x="745" y="-20" width="80" height="80" as="geometry" />
        </mxCell>
        <mxCell id="r0DkwN11o-YaDS_weGJ4-79" value="ORIGINAL" style="text;html=1;align=center;verticalAlign=middle;resizable=0;points=[];autosize=1;strokeColor=none;fillColor=none;" vertex="1" parent="1">
          <mxGeometry x="560" y="-70" width="80" height="30" as="geometry" />
        </mxCell>
        <mxCell id="r0DkwN11o-YaDS_weGJ4-80" value="5" style="whiteSpace=wrap;html=1;aspect=fixed;" vertex="1" parent="1">
          <mxGeometry x="220" y="230" width="80" height="80" as="geometry" />
        </mxCell>
        <mxCell id="r0DkwN11o-YaDS_weGJ4-81" value="2" style="whiteSpace=wrap;html=1;aspect=fixed;" vertex="1" parent="1">
          <mxGeometry x="140" y="230" width="80" height="80" as="geometry" />
        </mxCell>
        <mxCell id="r0DkwN11o-YaDS_weGJ4-82" value="6" style="whiteSpace=wrap;html=1;aspect=fixed;" vertex="1" parent="1">
          <mxGeometry x="300" y="230" width="80" height="80" as="geometry" />
        </mxCell>
        <mxCell id="r0DkwN11o-YaDS_weGJ4-83" value="1" style="whiteSpace=wrap;html=1;aspect=fixed;" vertex="1" parent="1">
          <mxGeometry x="380" y="230" width="80" height="80" as="geometry" />
        </mxCell>
        <mxCell id="r0DkwN11o-YaDS_weGJ4-84" value="3" style="whiteSpace=wrap;html=1;aspect=fixed;" vertex="1" parent="1">
          <mxGeometry x="460" y="230" width="80" height="80" as="geometry" />
        </mxCell>
        <mxCell id="r0DkwN11o-YaDS_weGJ4-85" value="5" style="whiteSpace=wrap;html=1;aspect=fixed;" vertex="1" parent="1">
          <mxGeometry x="220" y="450" width="80" height="80" as="geometry" />
        </mxCell>
        <mxCell id="r0DkwN11o-YaDS_weGJ4-86" value="2" style="whiteSpace=wrap;html=1;aspect=fixed;" vertex="1" parent="1">
          <mxGeometry x="140" y="450" width="80" height="80" as="geometry" />
        </mxCell>
        <mxCell id="r0DkwN11o-YaDS_weGJ4-87" value="6" style="whiteSpace=wrap;html=1;aspect=fixed;" vertex="1" parent="1">
          <mxGeometry x="380" y="450" width="80" height="80" as="geometry" />
        </mxCell>
        <mxCell id="r0DkwN11o-YaDS_weGJ4-88" value="1" style="whiteSpace=wrap;html=1;aspect=fixed;" vertex="1" parent="1">
          <mxGeometry x="300" y="450" width="80" height="80" as="geometry" />
        </mxCell>
        <mxCell id="r0DkwN11o-YaDS_weGJ4-89" value="3" style="whiteSpace=wrap;html=1;aspect=fixed;" vertex="1" parent="1">
          <mxGeometry x="460" y="450" width="80" height="80" as="geometry" />
        </mxCell>
        <mxCell id="r0DkwN11o-YaDS_weGJ4-90" value="5" style="whiteSpace=wrap;html=1;aspect=fixed;" vertex="1" parent="1">
          <mxGeometry x="220" y="560" width="80" height="80" as="geometry" />
        </mxCell>
        <mxCell id="r0DkwN11o-YaDS_weGJ4-91" value="2" style="whiteSpace=wrap;html=1;aspect=fixed;" vertex="1" parent="1">
          <mxGeometry x="140" y="560" width="80" height="80" as="geometry" />
        </mxCell>
        <mxCell id="r0DkwN11o-YaDS_weGJ4-92" value="6" style="whiteSpace=wrap;html=1;aspect=fixed;" vertex="1" parent="1">
          <mxGeometry x="460" y="560" width="80" height="80" as="geometry" />
        </mxCell>
        <mxCell id="r0DkwN11o-YaDS_weGJ4-93" value="1" style="whiteSpace=wrap;html=1;aspect=fixed;" vertex="1" parent="1">
          <mxGeometry x="300" y="560" width="80" height="80" as="geometry" />
        </mxCell>
        <mxCell id="r0DkwN11o-YaDS_weGJ4-94" value="3" style="whiteSpace=wrap;html=1;aspect=fixed;" vertex="1" parent="1">
          <mxGeometry x="380" y="560" width="80" height="80" as="geometry" />
        </mxCell>
        <mxCell id="r0DkwN11o-YaDS_weGJ4-95" value="5" style="whiteSpace=wrap;html=1;aspect=fixed;" vertex="1" parent="1">
          <mxGeometry x="220" y="350" width="80" height="80" as="geometry" />
        </mxCell>
        <mxCell id="r0DkwN11o-YaDS_weGJ4-96" value="2" style="whiteSpace=wrap;html=1;aspect=fixed;" vertex="1" parent="1">
          <mxGeometry x="140" y="350" width="80" height="80" as="geometry" />
        </mxCell>
        <mxCell id="r0DkwN11o-YaDS_weGJ4-97" value="6" style="whiteSpace=wrap;html=1;aspect=fixed;" vertex="1" parent="1">
          <mxGeometry x="300" y="350" width="80" height="80" as="geometry" />
        </mxCell>
        <mxCell id="r0DkwN11o-YaDS_weGJ4-98" value="1" style="whiteSpace=wrap;html=1;aspect=fixed;" vertex="1" parent="1">
          <mxGeometry x="380" y="350" width="80" height="80" as="geometry" />
        </mxCell>
        <mxCell id="r0DkwN11o-YaDS_weGJ4-99" value="3" style="whiteSpace=wrap;html=1;aspect=fixed;" vertex="1" parent="1">
          <mxGeometry x="460" y="350" width="80" height="80" as="geometry" />
        </mxCell>
        <mxCell id="r0DkwN11o-YaDS_weGJ4-105" value="5" style="whiteSpace=wrap;html=1;aspect=fixed;" vertex="1" parent="1">
          <mxGeometry x="740" y="205" width="80" height="80" as="geometry" />
        </mxCell>
        <mxCell id="r0DkwN11o-YaDS_weGJ4-106" value="2" style="whiteSpace=wrap;html=1;aspect=fixed;" vertex="1" parent="1">
          <mxGeometry x="660" y="205" width="80" height="80" as="geometry" />
        </mxCell>
        <mxCell id="r0DkwN11o-YaDS_weGJ4-107" value="6" style="whiteSpace=wrap;html=1;aspect=fixed;" vertex="1" parent="1">
          <mxGeometry x="980" y="205" width="80" height="80" as="geometry" />
        </mxCell>
        <mxCell id="r0DkwN11o-YaDS_weGJ4-108" value="1" style="whiteSpace=wrap;html=1;aspect=fixed;" vertex="1" parent="1">
          <mxGeometry x="820" y="205" width="80" height="80" as="geometry" />
        </mxCell>
        <mxCell id="r0DkwN11o-YaDS_weGJ4-109" value="3" style="whiteSpace=wrap;html=1;aspect=fixed;" vertex="1" parent="1">
          <mxGeometry x="900" y="205" width="80" height="80" as="geometry" />
        </mxCell>
        <mxCell id="r0DkwN11o-YaDS_weGJ4-110" value="5" style="whiteSpace=wrap;html=1;aspect=fixed;" vertex="1" parent="1">
          <mxGeometry x="820" y="335" width="80" height="80" as="geometry" />
        </mxCell>
        <mxCell id="r0DkwN11o-YaDS_weGJ4-111" value="2" style="whiteSpace=wrap;html=1;aspect=fixed;" vertex="1" parent="1">
          <mxGeometry x="660" y="335" width="80" height="80" as="geometry" />
        </mxCell>
        <mxCell id="r0DkwN11o-YaDS_weGJ4-112" value="6" style="whiteSpace=wrap;html=1;aspect=fixed;" vertex="1" parent="1">
          <mxGeometry x="980" y="335" width="80" height="80" as="geometry" />
        </mxCell>
        <mxCell id="r0DkwN11o-YaDS_weGJ4-113" value="1" style="whiteSpace=wrap;html=1;aspect=fixed;" vertex="1" parent="1">
          <mxGeometry x="740" y="335" width="80" height="80" as="geometry" />
        </mxCell>
        <mxCell id="r0DkwN11o-YaDS_weGJ4-114" value="3" style="whiteSpace=wrap;html=1;aspect=fixed;" vertex="1" parent="1">
          <mxGeometry x="900" y="335" width="80" height="80" as="geometry" />
        </mxCell>
        <mxCell id="r0DkwN11o-YaDS_weGJ4-115" value="5" style="whiteSpace=wrap;html=1;aspect=fixed;" vertex="1" parent="1">
          <mxGeometry x="900" y="450" width="80" height="80" as="geometry" />
        </mxCell>
        <mxCell id="r0DkwN11o-YaDS_weGJ4-116" value="2" style="whiteSpace=wrap;html=1;aspect=fixed;" vertex="1" parent="1">
          <mxGeometry x="660" y="450" width="80" height="80" as="geometry" />
        </mxCell>
        <mxCell id="r0DkwN11o-YaDS_weGJ4-117" value="6" style="whiteSpace=wrap;html=1;aspect=fixed;" vertex="1" parent="1">
          <mxGeometry x="980" y="450" width="80" height="80" as="geometry" />
        </mxCell>
        <mxCell id="r0DkwN11o-YaDS_weGJ4-118" value="1" style="whiteSpace=wrap;html=1;aspect=fixed;" vertex="1" parent="1">
          <mxGeometry x="740" y="450" width="80" height="80" as="geometry" />
        </mxCell>
        <mxCell id="r0DkwN11o-YaDS_weGJ4-119" value="3" style="whiteSpace=wrap;html=1;aspect=fixed;" vertex="1" parent="1">
          <mxGeometry x="820" y="450" width="80" height="80" as="geometry" />
        </mxCell>
        <mxCell id="r0DkwN11o-YaDS_weGJ4-120" value="5" style="whiteSpace=wrap;html=1;aspect=fixed;" vertex="1" parent="1">
          <mxGeometry x="1430" y="205" width="80" height="80" as="geometry" />
        </mxCell>
        <mxCell id="r0DkwN11o-YaDS_weGJ4-121" value="2" style="whiteSpace=wrap;html=1;aspect=fixed;" vertex="1" parent="1">
          <mxGeometry x="1275" y="205" width="80" height="80" as="geometry" />
        </mxCell>
        <mxCell id="r0DkwN11o-YaDS_weGJ4-122" value="6" style="whiteSpace=wrap;html=1;aspect=fixed;" vertex="1" parent="1">
          <mxGeometry x="1510" y="205" width="80" height="80" as="geometry" />
        </mxCell>
        <mxCell id="r0DkwN11o-YaDS_weGJ4-123" value="1" style="whiteSpace=wrap;html=1;aspect=fixed;" vertex="1" parent="1">
          <mxGeometry x="1195" y="205" width="80" height="80" as="geometry" />
        </mxCell>
        <mxCell id="r0DkwN11o-YaDS_weGJ4-124" value="3" style="whiteSpace=wrap;html=1;aspect=fixed;" vertex="1" parent="1">
          <mxGeometry x="1350" y="205" width="80" height="80" as="geometry" />
        </mxCell>
        <mxCell id="r0DkwN11o-YaDS_weGJ4-125" value="5" style="whiteSpace=wrap;html=1;aspect=fixed;" vertex="1" parent="1">
          <mxGeometry x="1435" y="340" width="80" height="80" as="geometry" />
        </mxCell>
        <mxCell id="r0DkwN11o-YaDS_weGJ4-126" value="2" style="whiteSpace=wrap;html=1;aspect=fixed;" vertex="1" parent="1">
          <mxGeometry x="1280" y="340" width="80" height="80" as="geometry" />
        </mxCell>
        <mxCell id="r0DkwN11o-YaDS_weGJ4-127" value="6" style="whiteSpace=wrap;html=1;aspect=fixed;" vertex="1" parent="1">
          <mxGeometry x="1515" y="340" width="80" height="80" as="geometry" />
        </mxCell>
        <mxCell id="r0DkwN11o-YaDS_weGJ4-128" value="1" style="whiteSpace=wrap;html=1;aspect=fixed;" vertex="1" parent="1">
          <mxGeometry x="1200" y="340" width="80" height="80" as="geometry" />
        </mxCell>
        <mxCell id="r0DkwN11o-YaDS_weGJ4-129" value="3" style="whiteSpace=wrap;html=1;aspect=fixed;" vertex="1" parent="1">
          <mxGeometry x="1355" y="340" width="80" height="80" as="geometry" />
        </mxCell>
        <mxCell id="r0DkwN11o-YaDS_weGJ4-130" value="5" style="whiteSpace=wrap;html=1;aspect=fixed;" vertex="1" parent="1">
          <mxGeometry x="1945" y="205" width="80" height="80" as="geometry" />
        </mxCell>
        <mxCell id="r0DkwN11o-YaDS_weGJ4-131" value="2" style="whiteSpace=wrap;html=1;aspect=fixed;" vertex="1" parent="1">
          <mxGeometry x="1790" y="205" width="80" height="80" as="geometry" />
        </mxCell>
        <mxCell id="r0DkwN11o-YaDS_weGJ4-132" value="6" style="whiteSpace=wrap;html=1;aspect=fixed;" vertex="1" parent="1">
          <mxGeometry x="2025" y="205" width="80" height="80" as="geometry" />
        </mxCell>
        <mxCell id="r0DkwN11o-YaDS_weGJ4-133" value="1" style="whiteSpace=wrap;html=1;aspect=fixed;" vertex="1" parent="1">
          <mxGeometry x="1710" y="205" width="80" height="80" as="geometry" />
        </mxCell>
        <mxCell id="r0DkwN11o-YaDS_weGJ4-134" value="3" style="whiteSpace=wrap;html=1;aspect=fixed;" vertex="1" parent="1">
          <mxGeometry x="1865" y="205" width="80" height="80" as="geometry" />
        </mxCell>
        <mxCell id="r0DkwN11o-YaDS_weGJ4-135" value="j=0" style="text;html=1;align=center;verticalAlign=middle;resizable=0;points=[];autosize=1;strokeColor=none;fillColor=none;" vertex="1" parent="1">
          <mxGeometry x="1660" y="240" width="40" height="30" as="geometry" />
        </mxCell>
        <mxCell id="r0DkwN11o-YaDS_weGJ4-136" value="i=3" style="text;html=1;align=center;verticalAlign=middle;resizable=0;points=[];autosize=1;strokeColor=none;fillColor=none;" vertex="1" parent="1">
          <mxGeometry x="1930" y="160" width="40" height="30" as="geometry" />
        </mxCell>
        <mxCell id="r0DkwN11o-YaDS_weGJ4-141" style="edgeStyle=orthogonalEdgeStyle;rounded=0;orthogonalLoop=1;jettySize=auto;html=1;exitX=0.5;exitY=1;exitDx=0;exitDy=0;entryX=0.5;entryY=0;entryDx=0;entryDy=0;" edge="1" parent="1" source="r0DkwN11o-YaDS_weGJ4-137" target="r0DkwN11o-YaDS_weGJ4-140">
          <mxGeometry relative="1" as="geometry" />
        </mxCell>
        <mxCell id="r0DkwN11o-YaDS_weGJ4-137" value="i=0&lt;div&gt;j=0&lt;/div&gt;&lt;div&gt;array[j]&lt;/div&gt;" style="shape=parallelogram;perimeter=parallelogramPerimeter;whiteSpace=wrap;html=1;fixedSize=1;" vertex="1" parent="1">
          <mxGeometry x="570" y="790" width="120" height="60" as="geometry" />
        </mxCell>
        <mxCell id="r0DkwN11o-YaDS_weGJ4-139" style="edgeStyle=orthogonalEdgeStyle;rounded=0;orthogonalLoop=1;jettySize=auto;html=1;exitX=0.5;exitY=1;exitDx=0;exitDy=0;" edge="1" parent="1" source="r0DkwN11o-YaDS_weGJ4-138" target="r0DkwN11o-YaDS_weGJ4-137">
          <mxGeometry relative="1" as="geometry" />
        </mxCell>
        <mxCell id="r0DkwN11o-YaDS_weGJ4-138" value="inicio" style="ellipse;whiteSpace=wrap;html=1;aspect=fixed;" vertex="1" parent="1">
          <mxGeometry x="590" y="660" width="80" height="80" as="geometry" />
        </mxCell>
        <mxCell id="r0DkwN11o-YaDS_weGJ4-143" style="edgeStyle=orthogonalEdgeStyle;rounded=0;orthogonalLoop=1;jettySize=auto;html=1;exitX=1;exitY=0.5;exitDx=0;exitDy=0;entryX=0;entryY=0.5;entryDx=0;entryDy=0;" edge="1" parent="1" source="r0DkwN11o-YaDS_weGJ4-140" target="r0DkwN11o-YaDS_weGJ4-150">
          <mxGeometry relative="1" as="geometry">
            <mxPoint x="740" y="970" as="targetPoint" />
          </mxGeometry>
        </mxCell>
        <mxCell id="r0DkwN11o-YaDS_weGJ4-144" value="SI" style="edgeLabel;html=1;align=center;verticalAlign=middle;resizable=0;points=[];fontSize=20;" vertex="1" connectable="0" parent="r0DkwN11o-YaDS_weGJ4-143">
          <mxGeometry x="0.1636" y="-3" relative="1" as="geometry">
            <mxPoint x="-12" y="-3" as="offset" />
          </mxGeometry>
        </mxCell>
        <mxCell id="r0DkwN11o-YaDS_weGJ4-148" style="edgeStyle=orthogonalEdgeStyle;rounded=0;orthogonalLoop=1;jettySize=auto;html=1;exitX=0.5;exitY=1;exitDx=0;exitDy=0;entryX=0.5;entryY=0;entryDx=0;entryDy=0;" edge="1" parent="1" source="r0DkwN11o-YaDS_weGJ4-140" target="r0DkwN11o-YaDS_weGJ4-147">
          <mxGeometry relative="1" as="geometry" />
        </mxCell>
        <mxCell id="r0DkwN11o-YaDS_weGJ4-149" value="NO" style="edgeLabel;html=1;align=center;verticalAlign=middle;resizable=0;points=[];fontSize=20;" vertex="1" connectable="0" parent="r0DkwN11o-YaDS_weGJ4-148">
          <mxGeometry x="-0.2417" y="6" relative="1" as="geometry">
            <mxPoint as="offset" />
          </mxGeometry>
        </mxCell>
        <mxCell id="r0DkwN11o-YaDS_weGJ4-140" value="i&amp;lt;n-1" style="rhombus;whiteSpace=wrap;html=1;" vertex="1" parent="1">
          <mxGeometry x="575" y="910" width="110" height="120" as="geometry" />
        </mxCell>
        <mxCell id="r0DkwN11o-YaDS_weGJ4-161" style="edgeStyle=orthogonalEdgeStyle;rounded=0;orthogonalLoop=1;jettySize=auto;html=1;exitX=0.5;exitY=0;exitDx=0;exitDy=0;entryX=1;entryY=0.5;entryDx=0;entryDy=0;" edge="1" parent="1" source="r0DkwN11o-YaDS_weGJ4-142" target="r0DkwN11o-YaDS_weGJ4-150">
          <mxGeometry relative="1" as="geometry" />
        </mxCell>
        <mxCell id="r0DkwN11o-YaDS_weGJ4-164" value="j++" style="edgeLabel;html=1;align=center;verticalAlign=middle;resizable=0;points=[];fontSize=20;" vertex="1" connectable="0" parent="r0DkwN11o-YaDS_weGJ4-161">
          <mxGeometry x="0.3701" y="4" relative="1" as="geometry">
            <mxPoint as="offset" />
          </mxGeometry>
        </mxCell>
        <mxCell id="r0DkwN11o-YaDS_weGJ4-142" value="aux = array[j]&lt;div&gt;array[j]=array[j+1]&lt;/div&gt;&lt;div&gt;array[j+1]=aux&lt;/div&gt;" style="rounded=0;whiteSpace=wrap;html=1;" vertex="1" parent="1">
          <mxGeometry x="970" y="1120" width="120" height="60" as="geometry" />
        </mxCell>
        <mxCell id="r0DkwN11o-YaDS_weGJ4-147" value="fin" style="ellipse;whiteSpace=wrap;html=1;aspect=fixed;" vertex="1" parent="1">
          <mxGeometry x="590" y="1110" width="80" height="80" as="geometry" />
        </mxCell>
        <mxCell id="r0DkwN11o-YaDS_weGJ4-152" style="edgeStyle=orthogonalEdgeStyle;rounded=0;orthogonalLoop=1;jettySize=auto;html=1;exitX=0.5;exitY=0;exitDx=0;exitDy=0;entryX=0.5;entryY=0;entryDx=0;entryDy=0;" edge="1" parent="1" source="r0DkwN11o-YaDS_weGJ4-150" target="r0DkwN11o-YaDS_weGJ4-140">
          <mxGeometry relative="1" as="geometry" />
        </mxCell>
        <mxCell id="r0DkwN11o-YaDS_weGJ4-153" value="NO&lt;div&gt;i++&lt;/div&gt;" style="edgeLabel;html=1;align=center;verticalAlign=middle;resizable=0;points=[];fontSize=20;" vertex="1" connectable="0" parent="r0DkwN11o-YaDS_weGJ4-152">
          <mxGeometry x="-0.3034" y="2" relative="1" as="geometry">
            <mxPoint as="offset" />
          </mxGeometry>
        </mxCell>
        <mxCell id="r0DkwN11o-YaDS_weGJ4-155" style="edgeStyle=orthogonalEdgeStyle;rounded=0;orthogonalLoop=1;jettySize=auto;html=1;exitX=0.5;exitY=1;exitDx=0;exitDy=0;entryX=0.5;entryY=0;entryDx=0;entryDy=0;" edge="1" parent="1" source="r0DkwN11o-YaDS_weGJ4-150" target="r0DkwN11o-YaDS_weGJ4-154">
          <mxGeometry relative="1" as="geometry" />
        </mxCell>
        <mxCell id="r0DkwN11o-YaDS_weGJ4-156" value="SI" style="edgeLabel;html=1;align=center;verticalAlign=middle;resizable=0;points=[];fontSize=20;" vertex="1" connectable="0" parent="r0DkwN11o-YaDS_weGJ4-155">
          <mxGeometry x="-0.3778" relative="1" as="geometry">
            <mxPoint as="offset" />
          </mxGeometry>
        </mxCell>
        <mxCell id="r0DkwN11o-YaDS_weGJ4-150" value="j&amp;lt;n-1-i" style="rhombus;whiteSpace=wrap;html=1;" vertex="1" parent="1">
          <mxGeometry x="780" y="910" width="110" height="120" as="geometry" />
        </mxCell>
        <mxCell id="r0DkwN11o-YaDS_weGJ4-160" value="SI&lt;div&gt;&lt;br&gt;&lt;/div&gt;" style="edgeStyle=orthogonalEdgeStyle;rounded=0;orthogonalLoop=1;jettySize=auto;html=1;exitX=1;exitY=0.5;exitDx=0;exitDy=0;entryX=0;entryY=0.5;entryDx=0;entryDy=0;fontSize=20;" edge="1" parent="1" source="r0DkwN11o-YaDS_weGJ4-154" target="r0DkwN11o-YaDS_weGJ4-142">
          <mxGeometry relative="1" as="geometry" />
        </mxCell>
        <mxCell id="r0DkwN11o-YaDS_weGJ4-162" style="edgeStyle=orthogonalEdgeStyle;rounded=0;orthogonalLoop=1;jettySize=auto;html=1;exitX=1;exitY=0;exitDx=0;exitDy=0;" edge="1" parent="1" source="r0DkwN11o-YaDS_weGJ4-154">
          <mxGeometry relative="1" as="geometry">
            <mxPoint x="1030" y="1040" as="targetPoint" />
            <Array as="points">
              <mxPoint x="863" y="1040" />
            </Array>
          </mxGeometry>
        </mxCell>
        <mxCell id="r0DkwN11o-YaDS_weGJ4-163" value="NO" style="edgeLabel;html=1;align=center;verticalAlign=middle;resizable=0;points=[];fontSize=20;" vertex="1" connectable="0" parent="r0DkwN11o-YaDS_weGJ4-162">
          <mxGeometry x="0.2027" relative="1" as="geometry">
            <mxPoint x="1" as="offset" />
          </mxGeometry>
        </mxCell>
        <mxCell id="r0DkwN11o-YaDS_weGJ4-154" value="array[j]&amp;gt;array[j+1]" style="rhombus;whiteSpace=wrap;html=1;" vertex="1" parent="1">
          <mxGeometry x="780" y="1090" width="110" height="120" as="geometry" />
        </mxCell>
      </root>
    </mxGraphModel>
  </diagram>
</mxfile>
